<svg xmlns="http://www.w3.org/2000/svg" version="1.1" xmlns:xlink="http://www.w3.org/1999/xlink" width="1500" height="180" viewBox="0 0 1500 180"><svg xml:space="preserve" width="1500" height="180" data-version="2" data-id="lg_r0r28dyJOzjwkVlaat" viewBox="0 0 558 180" x="0" y="0"><rect width="100%" height="100%" fill="transparent"></rect><path d="M5.33 31.72h51.9v17.3H24.36v32h26.13v17.3H24.36v37.2h32.87v17.3H5.33Z" paint-order="stroke"></path><rect width="51.9" height="121.1" x="-25.95" y="-60.55" fill="none" rx="0" ry="0" transform="translate(31.78 92.77)"></rect><path d="M85.26 90.88 64.33 31.72h20.06L97.2 70.81h.34l13.15-39.09h17.99l-20.93 59.16 21.97 61.94h-20.07L95.81 110.6h-.34l-14.19 42.22H63.29Z" paint-order="stroke"></path><rect width="66.43" height="121.1" x="-33.22" y="-60.55" fill="none" rx="0" ry="0" transform="translate(97 92.77)"></rect><path d="M138.72 31.72h51.9v17.3h-32.87v32h26.12v17.3h-26.12v37.2h32.87v17.3h-51.9Z" paint-order="stroke"></path><rect width="51.9" height="121.1" x="-25.95" y="-60.55" fill="none" rx="0" ry="0" transform="translate(165.17 92.77)"></rect><path d="M201.52 31.72h28.19q14.71 0 21.46 6.83 6.74 6.83 6.74 21.02v7.44q0 18.85-12.45 23.87v.35q6.92 2.07 9.77 8.47 2.86 6.41 2.86 17.13v21.28q0 5.19.34 8.39.35 3.2 1.73 6.32h-19.37q-1.04-2.95-1.39-5.54-.34-2.6-.34-9.34v-22.15q0-8.3-2.69-11.59-2.68-3.28-9.25-3.28h-6.57v51.9h-19.03Zm25.95 51.9q5.7 0 8.56-2.95 2.85-2.94 2.85-9.86v-9.34q0-6.57-2.33-9.51-2.34-2.94-7.35-2.94h-8.65v34.6Z" paint-order="stroke"></path><rect width="58.64" height="121.1" x="-29.32" y="-60.55" fill="none" rx="0" ry="0" transform="translate(231.34 92.77)"></rect><path d="M298.05 154.55q-13.67 0-20.85-7.79-7.18-7.78-7.18-21.97V59.74q0-14.18 7.18-21.97 7.18-7.78 20.85-7.78 13.67 0 20.85 7.78 7.18 7.79 7.18 21.97v12.8h-18V58.53q0-11.24-9.51-11.24-9.52 0-9.52 11.24v67.64q0 11.08 9.52 11.08 9.51 0 9.51-11.08v-18.51h18v17.13q0 14.19-7.18 21.97-7.18 7.79-20.85 7.79" paint-order="stroke"></path><rect width="56.06" height="124.56" x="-28.03" y="-62.28" fill="none" rx="0" ry="0" transform="translate(298.55 92.77)"></rect><path d="M337.49 31.72h19.03v121.1h-19.03Z" paint-order="stroke"></path><rect width="19.03" height="121.1" x="-9.52" y="-60.55" fill="none" rx="0" ry="0" transform="translate(347.5 92.77)"></rect><path d="M395.45 154.55q-13.84 0-20.93-7.88-7.1-7.87-7.1-22.57v-6.92h17.99v8.3q0 11.77 9.87 11.77 4.84 0 7.35-2.86 2.51-2.85 2.51-9.25 0-7.62-3.46-13.41-3.46-5.8-12.81-13.93-11.76-10.38-16.43-18.77-4.67-8.39-4.67-18.94 0-14.36 7.26-22.23 7.27-7.87 21.11-7.87 13.67 0 20.67 7.87 7.01 7.87 7.01 22.57v5.02h-17.99v-6.23q0-6.23-2.42-9.08-2.43-2.85-7.1-2.85-9.51 0-9.51 11.59 0 6.57 3.54 12.28 3.55 5.71 12.89 13.84 11.94 10.38 16.44 18.86 4.5 8.47 4.5 19.89 0 14.88-7.36 22.84-7.35 7.96-21.36 7.96" paint-order="stroke"></path><rect width="56.75" height="124.56" x="-28.38" y="-62.28" fill="none" rx="0" ry="0" transform="translate(396.3 92.77)"></rect><path d="M435.06 31.72h51.9v17.3H454.1v32h26.12v17.3H454.1v37.2h32.86v17.3h-51.9Z" paint-order="stroke"></path><rect width="51.9" height="121.1" x="-25.95" y="-60.55" fill="none" rx="0" ry="0" transform="translate(461.51 92.77)"></rect><path d="M522.95 154.55q-13.84 0-20.93-7.88-7.1-7.87-7.1-22.57v-6.92h18v8.3q0 11.77 9.86 11.77 4.84 0 7.35-2.86 2.51-2.85 2.51-9.25 0-7.62-3.46-13.41-3.46-5.8-12.8-13.93-11.77-10.38-16.44-18.77-4.67-8.39-4.67-18.94 0-14.36 7.27-22.23 7.26-7.87 21.1-7.87 13.67 0 20.67 7.87 7.01 7.87 7.01 22.57v5.02h-17.99v-6.23q0-6.23-2.42-9.08-2.43-2.85-7.1-2.85-9.51 0-9.51 11.59 0 6.57 3.55 12.28 3.54 5.71 12.88 13.84 11.94 10.38 16.44 18.86 4.5 8.47 4.5 19.89 0 14.88-7.36 22.84-7.35 7.96-21.36 7.96" paint-order="stroke"></path><rect width="56.75" height="124.56" x="-28.38" y="-62.28" fill="none" rx="0" ry="0" transform="translate(523.8 92.77)"></rect><path fill="red" d="M79.1 87.5 48.85 2h29l18.5 56.5h.5l19-56.5h26L111.6 87.5l31.75 89.5h-29l-20-61h-.5l-20.5 61h-26Z" paint-order="stroke"></path><rect width="96" height="175" x="-48" y="-87.5" fill="none" rx="0" ry="0" transform="translate(95.85 90)"></rect></svg></svg>